<svg width="51" height="65" viewBox="0 0 51 65" fill="none" xmlns="http://www.w3.org/2000/svg">
<path d="M51 58.11V65L45.2625 61.1975L29.9944 31.9475C32.0981 31.265 34.0106 30.16 35.6681 28.6975L51 58.11ZM35.0625 16.25C35.0625 18.8359 34.055 21.3158 32.2617 23.1443C30.4684 24.9728 28.0361 26 25.5 26H24.0975L5.7375 61.1975L0 65V58.11L18.4556 22.75C14.9494 18.7525 15.2681 12.5775 19.2206 8.97C20.9419 7.41 23.1731 6.5 25.5 6.5V0C26.3454 0 27.1561 0.34241 27.7539 0.951903C28.3517 1.5614 28.6875 2.38805 28.6875 3.25V7.085C32.5125 8.45 35.0625 12.1225 35.0625 16.25ZM28.6875 16.25C28.6875 15.388 28.3517 14.5614 27.7539 13.9519C27.1561 13.3424 26.3454 13 25.5 13C24.6546 13 23.8439 13.3424 23.2461 13.9519C22.6483 14.5614 22.3125 15.388 22.3125 16.25C22.3125 17.112 22.6483 17.9386 23.2461 18.5481C23.8439 19.1576 24.6546 19.5 25.5 19.5C26.3454 19.5 27.1561 19.1576 27.7539 18.5481C28.3517 17.9386 28.6875 17.112 28.6875 16.25Z" fill="#7B76F1"/>
</svg>
