<svg width="66" height="66" viewBox="0 0 66 66" fill="none" xmlns="http://www.w3.org/2000/svg">
<path d="M32.9999 12.3099C36.958 15.1959 40.6829 18.3891 44.1398 21.8599C47.6106 25.3168 50.8038 29.0417 53.6898 32.9999M32.9999 12.3099C29.0417 15.1959 25.3168 18.3891 21.8599 21.8599C18.3891 25.3168 15.1959 29.0417 12.3099 32.9999M32.9999 12.3099C44.8998 3.69655 56.1565 0.463225 60.8465 5.15322C65.5365 9.84321 62.3032 21.0999 53.6898 32.9999M53.6898 32.9999C62.3032 44.8998 65.5365 56.1565 60.8465 60.8465C57.3698 64.3231 50.2798 63.4465 41.9998 59.2465M53.6898 32.9999C50.8038 36.958 47.6106 40.6829 44.1398 44.1398C40.6829 47.6106 36.958 50.8038 32.9999 53.6898M12.3099 32.9999C15.1959 36.958 18.3891 40.6829 21.8599 44.1398C25.3168 47.6106 29.0417 50.8038 32.9999 53.6898M12.3099 32.9999C3.69655 44.8998 0.463225 56.1565 5.15322 60.8465C9.84321 65.5365 21.0999 62.3032 32.9999 53.6898M12.3099 32.9999C3.69989 21.0999 0.466558 9.84321 5.15322 5.15322C8.62988 1.67656 15.7199 2.55322 23.9999 6.75322" stroke="#7B76F1" stroke-width="5" stroke-linecap="round" stroke-linejoin="round"/>
</svg>
