<svg width="52" height="67" viewBox="0 0 52 67" fill="none" xmlns="http://www.w3.org/2000/svg">
<path d="M51.895 62.3973L38.4459 8.46016C37.8448 6.04066 36.4522 3.89274 34.4906 2.35928C32.5289 0.825812 30.1113 -0.00480095 27.6235 2.08756e-05H24.3653C21.8795 -0.00230332 19.4644 0.829456 17.505 2.36272C15.5457 3.89599 14.1548 6.04252 13.5541 8.46016L0.10502 62.3973C-0.126505 63.3525 0.0281888 64.3607 0.535367 65.202C1.04254 66.0433 1.86106 66.6495 2.8124 66.8884C3.76374 67.1272 4.77072 66.9794 5.61374 66.4771C6.45675 65.9748 7.0674 65.1588 7.31252 64.207L12.1794 44.6839H39.8206L44.6875 64.207C44.9326 65.1588 45.5433 65.9748 46.3863 66.4771C47.2293 66.9794 48.2363 67.1272 49.1876 66.8884C50.1389 66.6495 50.9575 66.0433 51.4646 65.202C51.9718 64.3607 52.1265 63.3525 51.895 62.3973ZM14.037 37.2366L20.7653 10.2699C20.9658 9.46394 21.4295 8.74836 22.0825 8.23693C22.7354 7.72549 23.5403 7.44756 24.369 7.44733H27.631C28.4597 7.44756 29.2646 7.72549 29.9175 8.23693C30.5705 8.74836 31.0342 9.46394 31.2347 10.2699L37.9592 37.2366H14.037Z" fill="#7B76F1"/>
</svg>
